<?xml version="1.0" encoding="UTF-8" standalone="no"?>
<svg
   xmlns:dc="http://purl.org/dc/elements/1.1/"
   xmlns:cc="http://creativecommons.org/ns#"
   xmlns:rdf="http://www.w3.org/1999/02/22-rdf-syntax-ns#"
   xmlns:svg="http://www.w3.org/2000/svg"
   xmlns="http://www.w3.org/2000/svg"
   version="1.1"
   id="svg2"
   viewBox="0 0 754.99999 113"
   height="113"
   width="755">
  <defs
     id="defs4" />
  <metadata
     id="metadata7">
    <rdf:RDF>
      <cc:Work
         rdf:about="">
        <dc:format>image/svg+xml</dc:format>
        <dc:type
           rdf:resource="http://purl.org/dc/dcmitype/StillImage" />
        <dc:title></dc:title>
      </cc:Work>
    </rdf:RDF>
  </metadata>
  <g
     transform="translate(0,-939.36219)"
     id="layer1">
    <g
       transform="translate(-1.157262,935.35293)"
       id="g3339">
	<path
   style="fill:#453c36"
   class="st0"
   d="m 745.5,63.3 c -2.2,4.2 -6.4,6.7 -10.8,6.7 -6.6,0 -12.1,-5.6 -12.5,-12.6 l 0,-0.2 c 0,-0.2 0,-0.4 0,-0.6 0,-2.3 0.5,-4.5 1.6,-6.5 2.2,-4.3 6.4,-7 11,-7 4.5,0 8.7,2.6 11,6.9 l 0.2,0.4 9.9,-4 -0.2,-0.4 c -3.9,-8.6 -12.2,-14.2 -21.3,-14.2 -10.3,0 -19.3,6.9 -22.4,17.1 -0.7,2.4 -1.1,4.9 -1.1,7.5 0,0.3 0,0.6 0,0.9 0.5,13.3 10.8,23.6 23.5,23.6 9,0 17,-5.2 21,-13.6 l 0.2,-0.4 -9.7,-3.9 -0.4,0.3 z"
   id="path3341" />

	<path
   style="fill:#453c36"
   class="st0"
   d="m 540.7,51.6 -22.4,0 c 0.2,-0.5 0.4,-0.9 0.6,-1.4 2.2,-4.3 6.4,-7 11,-7 1.7,0 3.3,0.3 4.8,1 2.8,1.6 4.9,4.3 6,7.4 m 2.1,-15.3 c -0.4,-0.3 -0.8,-0.6 -1.3,-0.9 -0.1,-0.1 -0.2,-0.1 -0.3,-0.2 -0.3,-0.2 -0.5,-0.3 -0.8,-0.5 L 540,34.5 c -0.5,-0.3 -1,-0.5 -1.4,-0.7 -0.2,-0.1 -0.3,-0.1 -0.5,-0.2 -0.3,-0.1 -0.5,-0.2 -0.8,-0.3 -0.2,-0.1 -0.3,-0.1 -0.5,-0.2 l -0.1,0 c -0.4,-0.1 -0.8,-0.3 -1.2,-0.4 -0.2,-0.1 -0.5,-0.1 -0.7,-0.2 -0.2,-0.1 -0.5,-0.1 -0.7,-0.2 -0.3,-0.1 -0.6,-0.1 -1,-0.2 -0.2,0 -0.5,-0.1 -0.7,-0.1 -0.4,-0.1 -0.8,-0.1 -1.1,-0.1 -0.2,0 -0.3,0 -0.5,0 -0.5,0 -1,-0.1 -1.4,-0.1 l -0.1,0 c -0.6,0 -1.2,0 -1.9,0.1 l -0.3,0 c -0.5,0.1 -1,0.1 -1.5,0.2 l -0.4,0.1 c -0.5,0.1 -1,0.2 -1.5,0.3 l -0.3,0.1 c -0.5,0.1 -1,0.3 -1.5,0.5 l -0.2,0.1 c -0.5,0.2 -1,0.4 -1.7,0.7 -5.1,2.3 -9.3,6.4 -11.8,11.6 l -0.2,0.4 0,0 c -0.5,1 -0.8,2 -1.2,3.1 -0.7,2.4 -1.1,4.9 -1.1,7.5 0,0.3 0,0.6 0,0.9 0.1,2.1 0.4,4.1 1,6.1 l 0.1,0.5 c 0.3,0.9 0.6,1.9 1.1,2.9 0.1,0.2 0.2,0.3 0.2,0.5 l 0.2,0.4 c 0.5,0.9 1,1.9 1.6,2.8 l 0.2,0.2 c 0.6,0.8 1.2,1.7 1.9,2.5 l 0.2,0.2 c 0.2,0.2 0.4,0.5 0.7,0.7 l 0.1,0.1 c 0.4,0.4 0.9,0.9 1.4,1.3 0.1,0.1 0.2,0.2 0.3,0.2 0.2,0.2 0.5,0.4 0.8,0.6 l 0.2,0.1 c 0.5,0.3 0.9,0.7 1.4,1 l 0.3,0.2 c 0.3,0.2 0.5,0.3 0.8,0.5 l 0.3,0.2 c 0.5,0.2 0.9,0.5 1.4,0.7 0.2,0.1 0.3,0.1 0.5,0.2 0.3,0.1 0.5,0.2 0.8,0.3 0.2,0.1 0.4,0.1 0.6,0.2 0.4,0.1 0.8,0.3 1.2,0.4 0.2,0.1 0.5,0.1 0.7,0.2 0.2,0.1 0.5,0.1 0.7,0.2 0.3,0.1 0.6,0.1 1,0.2 0.2,0 0.5,0.1 0.7,0.1 0.4,0.1 0.8,0.1 1.1,0.1 0.2,0 0.3,0 0.5,0 0.5,0 1,0.1 1.5,0.1 l 0,0 c 0.6,0 1.2,0 1.9,-0.1 l 0.3,0 c 0.5,0 1,-0.1 1.5,-0.2 l 0.4,-0.1 c 0.5,-0.1 1,-0.2 1.5,-0.3 l 0.3,-0.1 c 0.5,-0.1 1,-0.3 1.5,-0.4 l 0.3,-0.1 c 0.5,-0.2 1.1,-0.4 1.5,-0.6 l 0.1,0 c 5.1,-2.3 9.3,-6.4 11.8,-11.6 l 0.2,-0.4 -10.5,-4.6 -0.2,0.4 c -2.2,4.1 -6.4,6.7 -10.9,6.7 -1.7,0 -3.3,-0.3 -4.8,-1 -3.8,-2.1 -5.8,-4.6 -6.5,-8.1 l 33.8,0 0,-0.4 c 0.4,-3.8 0.9,-16.9 -8.6,-23.9"
   id="path3343" />

	<path
   style="fill:#453c36"
   class="st0"
   d="m 490.6,56.6 -0.2,0.4 c -3.8,7 -10.3,11.2 -17.3,11.2 -11.3,0 -20.5,-10.8 -20.5,-24.1 0,-13.3 9.2,-24.1 20.5,-24.1 8.3,0 15.7,5.8 18.9,14.8 l 0.2,0.4 11.8,-5 -0.2,-0.4 C 498.6,16 486.5,7.1 473.1,7.1 c -18.4,0 -33.3,16.6 -33.3,36.9 0,20.4 14.9,36.9 33.3,36.9 11.7,0 22.7,-7 28.7,-18.2 l 0,0 0.4,-0.7 0,0 0,-0.1 -11.6,-5.3 z"
   id="path3345" />

	<path
   style="fill:#453c36"
   class="st0"
   d="m 573.3,46.5 c 2.3,-1.8 5,-2.8 7.9,-2.8 4.7,0 9.1,2.7 11.4,7 1.1,2 1.6,4.2 1.6,6.5 0,0.2 0,0.3 0,0.5 l 0,0.3 c -0.2,3.7 -1.8,7 -4.5,9.4 -2.3,1.8 -5,2.8 -7.9,2.8 -4.7,0 -9.1,-2.7 -11.4,-7 -0.1,-0.2 -0.2,-0.5 -0.3,-0.7 -0.8,-1.8 -1.3,-3.8 -1.3,-5.8 0,-0.2 0,-0.4 0,-0.5 l 0,-0.3 c 0.1,-1.7 0.5,-3.3 1.2,-4.9 0.8,-1.7 2,-3.2 3.3,-4.5 m 31.5,3 C 601.5,39.1 592.9,32.3 582.7,32.3 l -0.3,0 c 0,0 -0.2,0 -0.4,0 0,0 -0.1,0 -0.1,0 -0.1,0 -7.3,0.1 -11.9,4.8 l 0,-3.6 -13,0 0,72.6 13.1,0 0,-29.1 c 0.6,0.7 1.1,1.1 1.1,1.2 l 0.1,0 c 3.1,2.9 8.1,3.4 10.9,3.4 12.9,-0.2 23.3,-10.7 23.8,-23.7 0,-0.3 0,-0.6 0,-1 0,-2.4 -0.4,-4.9 -1.2,-7.4"
   id="path3347" />

	<path
   style="fill:#453c36"
   class="st0"
   d="m 639.2,49.8 c -1,0.4 -1.6,0.5 -1.8,0.5 l -2.1,0 c -0.5,0 -0.9,0 -0.9,0 l -1,0 -8.7,0 0,-7.5 12.8,0 c 0.1,0 0.6,0.1 1.3,0.4 1.3,0.7 2.3,2 2.3,3.2 -0.1,1.7 -0.6,2.8 -1.9,3.4 m 3.1,16 c -0.1,2 -1.8,3.5 -3.4,4 -0.2,0.1 -0.5,0.1 -0.8,0.2 -1.1,0.2 -2.5,0.3 -3.3,0.3 l -3.2,0 c -1.2,0 -2.5,0 -3.6,0 l -3.2,0 0,-10.8 3.2,0 c 1.1,0 2.3,0 3.6,0 l 2.9,0 c 0.4,0 2.6,0 4.2,0.4 l 0.1,0 c 0.1,0 0.2,0 0.2,0.1 0.2,0 0.3,0.1 0.5,0.2 l 0,0 0,0 0,0 0,0 0.1,0.1 c 0.1,0.1 0.3,0.1 0.4,0.2 1.3,0.8 2.2,2.1 2.3,3.5 l 0,0.1 c 0,0.2 0,0.8 0,0.8 0,0 0,0.8 0,0.9 M 655,64 l 0,-0.1 c -0.1,-2.9 -1.2,-5.4 -3.3,-7.5 l -0.1,-0.1 c -0.8,-0.8 -1.7,-1.5 -2.9,-2.3 0.2,-0.3 0.5,-0.7 0.7,-1 2.2,-2 3.4,-4.6 3.4,-7.3 0,-5.3 -5.4,-10.8 -11.5,-11.7 -1.8,-0.1 -3.2,-0.2 -3.8,-0.2 -0.4,0 -0.6,0 -0.6,0 l -24.9,0.1 0,45.5 12.2,0 6,-0.1 9.3,0 C 646.2,78.8 652,74.7 654,69 c 0.5,-1.5 0.8,-3 0.8,-4.5 0.2,-0.2 0.2,-0.4 0.2,-0.5"
   id="path3349" />

	<path
   style="fill:#453c36"
   class="st0"
   d="m 706.7,78.9 c -0.1,-0.2 -0.2,-0.5 -0.2,-0.8 0,-0.1 0,-0.2 -0.1,-0.3 l -0.1,-0.5 c -0.4,-2.5 -0.5,-7.4 -0.6,-11 l 0,-32.4 -12.7,0 0,22.9 c 0,0 0,0.4 0,1.1 l 0,0.2 c -0.1,1.8 -0.5,5 -1.8,7 -1.9,2.6 -4.8,4.1 -7.9,4.1 -0.3,0 -0.6,0 -0.8,0 -1.7,-0.1 -3.3,-0.7 -4.6,-1.7 -1.9,-1.3 -3.2,-3.2 -3.9,-5.4 l 0,-0.1 c -0.2,-0.6 -0.4,-1.9 -0.6,-3.6 l 0,-0.1 c 0,-0.4 -0.1,-0.7 -0.1,-0.9 l 0,-0.2 c -0.6,-8.8 0,-22.6 0,-22.8 l 0,-0.6 -12.4,0 0,0.5 c 0,7.7 0.1,21.1 0,23.6 0.1,2.9 0.5,7.1 1.8,10.9 0.7,1.7 1.6,3.3 2.5,4.6 0.2,0.3 0.5,0.6 0.7,0.9 0.3,0.3 0.6,0.6 0.8,0.9 1.5,1.6 3.4,2.8 5.5,3.7 l 0.1,0 c 1,0.5 3.9,1.6 8.2,1.6 l 0.2,0 c 0.6,0 1.1,0 1.5,-0.1 0.3,0 7.2,-0.1 11.8,-5.4 0.2,2.1 0.7,3.6 1.3,4.2 l 0.1,0.1 11.7,0 -0.4,-0.4 z"
   id="path3351" />

	<polygon
   style="fill:#00a0dd"
   class="st1"
   points="144.7,32.9 146.1,32.8 134.3,32.8 134.8,32.9 "
   id="polygon3353" />

	<polygon
   style="fill:#00a0dd"
   class="st1"
   points="409.2,78.9 421,78.9 406.5,35.2 406.2,34.3 394.9,34.3 394.6,35.2 380.1,78.9 392,78.9 400.6,50.2 "
   id="polygon3355" />

	<polygon
   style="fill:#00a0dd"
   class="st1"
   points="285.5,78.8 296.7,78.8 296.7,64.3 299.7,60.9 314.4,78.8 328.3,78.8 307.3,52.3 325.1,34.1 311.8,34.1 296.7,48.9 296.7,34.1 285.5,34.1 "
   id="polygon3357" />

	<path
   style="fill:#00a0dd"
   class="st1"
   d="m 211,61.9 c -0.1,0.2 -0.2,0.5 -0.3,0.7 -2.2,4.2 -6.5,7 -11.4,7 -3,0 -5.7,-1 -7.9,-2.8 -2.6,-2.3 -4.3,-5.7 -4.5,-9.4 0,-0.3 0,-0.5 0,-0.8 0,-2.4 0.6,-4.6 1.6,-6.5 2.2,-4.2 6.5,-7 11.4,-7 3,0 5.7,1 7.9,2.8 1.4,1.2 2.5,2.8 3.3,4.5 0.7,1.5 1.1,3.1 1.2,4.9 0,0.3 0,0.5 0,0.8 0,2.1 -0.5,4.1 -1.3,5.8 m -11.9,-29 0,0 c 0,0 -0.1,0 0,0 -0.1,0 -0.1,0 0,0 m 11.9,1.2 0,4.3 c 0,-0.1 -0.1,-0.1 -0.1,-0.2 -4.3,-5.2 -11.9,-5.3 -12,-5.2 -0.2,0 -0.4,0 -0.4,0 -10.4,-0.1 -18.2,6.8 -21.2,16.3 -0.7,2.2 -1.1,4.7 -1.1,7.1 0,0.3 0,0.6 0,0.9 0.5,12.4 10.4,22.3 22.6,22.5 3.2,0 7.6,-0.7 10.3,-3.3 l 0,0 c 0,0 1.1,-0.9 1.8,-2.1 l 0,4.2 11.8,0 0,-22.2 0,-22.3 -11.7,0 z"
   id="path3359" />

	<path
   style="fill:#00a0dd"
   class="st1"
   d="m 361.1,62.2 c -0.1,0.2 -0.2,0.5 -0.3,0.7 -2.2,4.2 -6.5,7 -11.3,7 -3,0 -5.7,-1 -7.9,-2.8 -2.6,-2.3 -4.3,-5.6 -4.5,-9.4 0,-0.3 0,-0.5 0,-0.8 0,-2.3 0.6,-4.6 1.6,-6.5 2.2,-4.2 6.5,-7 11.3,-7 3,0 5.7,1 7.9,2.8 1.4,1.2 2.5,2.8 3.3,4.5 0.7,1.5 1.1,3.1 1.2,4.9 0,0.3 0,0.5 0,0.8 -0.1,2 -0.5,4 -1.3,5.8 m -11.9,-28.9 0,0 0,0 0,0 z m 11.9,1.1 0,4.2 c 0,-0.1 -0.1,-0.1 -0.1,-0.2 -4.2,-5.2 -11.9,-5.2 -11.9,-5.2 -0.2,0 -0.4,0 -0.4,0 -10.3,-0.1 -18.2,6.8 -21.1,16.3 -0.7,2.2 -1.1,4.6 -1.1,7.1 0,0.3 0,0.6 0,0.9 0.5,12.4 10.3,22.2 22.5,22.5 3.2,0 7.6,-0.7 10.2,-3.3 l 0,0 c 0,0 1.1,-0.9 1.8,-2.1 l 0,4.2 11.7,0 0,-22.2 0,-22.2 -11.6,0 z"
   id="path3361" />

	<path
   style="fill:#00a0dd"
   class="st1"
   d="m 155.1,61.4 c -1.8,3 -5,5.2 -8.8,6.1 l -12.8,0 0,-23.6 9.6,-0.1 3,0 c 0.3,0.1 0.7,0.1 1,0.2 1.8,0.4 3.4,1.2 4.9,2.1 2.7,2.1 4.5,5.2 4.7,8.6 0,0.2 0,0.5 0,0.7 0.1,2.2 -0.5,4.2 -1.6,6 m 14.3,-6.6 c -0.3,-7.2 -4.1,-13.6 -9.8,-17.6 -5.7,-4.8 -14.3,-4.6 -14.3,-4.6 l -1.4,0 -9.9,0 -0.5,0 0,-0.1 0,-14 27.5,0 0,-11.1 -38.7,0 0,0.4 0,0 0,10.6 0,60.2 2.2,0 21.1,0 c 0.4,0 1,0 1.6,-0.1 l 0,0 c 9.9,-0.7 18.2,-7.2 21.1,-15.9 0.7,-2.2 1.1,-4.5 1.1,-7 0,-0.2 0,-0.5 0,-0.8"
   id="path3363" />

	<path
   style="fill:#00a0dd"
   class="st1"
   d="m 276.2,77.3 c 0,-0.1 0,-0.2 -0.1,-0.3 0,-0.1 0,-0.2 -0.1,-0.3 0,0 0,0 0,0 0,-0.1 0,-0.2 0,-0.2 -0.4,-2.5 -0.5,-7.1 -0.6,-11.1 l 0,-9.6 0,-22.3 -9.1,0 -2.6,0 0,0 0,5.2 0,3.5 0,2.2 0,5.5 0,6.1 c 0,0 0,0.4 0,1.1 0,0 0,0.1 0,0.1 0,0 0,0 0,0 -0.1,1.8 -0.5,5.2 -1.9,7.3 -1.9,2.6 -4.9,4.3 -8.3,4.3 -0.3,0 -0.6,0 -0.9,0 -1.8,-0.2 -3.5,-0.8 -4.9,-1.7 -1.9,-1.3 -3.4,-3.3 -4.1,-5.6 0,0 0,0 0,-0.1 -0.3,-0.8 -0.5,-2.6 -0.6,-3.8 l 0,0 c 0,0 0,0 0,0 -0.1,-0.6 -0.1,-1.1 -0.1,-1.1 l 0,0 c -0.6,-9 0,-22.8 0,-22.8 l -0.4,-0.1 -11.1,0 c 0,4.3 0.1,20.8 0,23.6 0.1,2.6 0.4,6.9 1.8,10.8 0.6,1.5 1.4,3.1 2.5,4.5 l 0,0 c 0.2,0.3 0.4,0.6 0.7,0.9 0.3,0.3 0.6,0.6 0.8,0.9 1.4,1.5 3.1,2.7 5.3,3.6 0,0 0.1,0 0.1,0 0.9,0.4 3.8,1.5 8.2,1.5 0.6,0 1.1,0 1.5,-0.1 0,0 7.7,0.1 12.1,-6.2 0.1,1.7 0.4,4.2 1.3,5.1 l 10.9,0 c -0.2,-0.3 -0.3,-0.6 -0.4,-0.9"
   id="path3365" />

	<path
   style="fill:#00a0dd"
   class="st1"
   d="m 260.5,21.4 0,0 0,0 c -1.5,2 -4,3.4 -6.8,3.5 -3.1,0.1 -5.9,-1.4 -7.5,-3.6 l -5.9,3.2 c 2.2,5.2 7.5,8.8 13.7,8.5 5.7,-0.2 10.5,-3.6 12.5,-8.4 l -6,-3.2 z"
   id="path3367" />

	<path
   style="fill:#00a0dd"
   class="st1"
   d="m 499.9,110.6 c -0.5,0.4 -1.1,0.7 -1.8,0.7 -0.5,0 -0.9,-0.1 -1.2,-0.3 -0.3,-0.2 -0.5,-0.5 -0.5,-0.9 0,-0.8 0.5,-1.2 1.6,-1.2 l 2.5,0 0,0.1 c 0.1,0.6 -0.1,1.2 -0.6,1.6 m 2.5,-7.9 c -0.9,-0.9 -2.1,-1.3 -3.7,-1.3 -2.1,0 -3.8,0.8 -5.1,2.4 l 1.7,2 c 0.5,-0.6 1,-1 1.5,-1.2 0.5,-0.3 1,-0.4 1.6,-0.4 0.7,0 1.3,0.2 1.6,0.5 0.4,0.4 0.6,0.9 0.6,1.5 l 0,0.5 -2.9,0 c -1.4,0 -2.4,0.3 -3.2,0.9 -0.8,0.6 -1.2,1.4 -1.2,2.5 0,1 0.4,1.9 1.1,2.5 0.7,0.6 1.7,1 3,1 1.5,0 2.7,-0.5 3.6,-1.4 l 0,1.1 2.9,0 0,-7 c -0.1,-1.5 -0.6,-2.8 -1.5,-3.6 m -24,9.1 c 1.3,1.2 2.7,1.8 4.5,1.8 1.1,0 2.1,-0.3 3,-0.8 0.9,-0.5 1.6,-1.2 2.1,-2.2 l -2.2,-1.7 c -0.8,1.1 -1.7,1.7 -2.8,1.7 -0.9,0 -1.6,-0.3 -2.2,-0.9 -0.6,-0.6 -0.9,-1.4 -0.9,-2.3 0,-0.9 0.3,-1.7 0.9,-2.3 0.6,-0.6 1.3,-0.9 2.2,-0.9 1.1,0 2,0.6 2.8,1.7 l 2.2,-1.7 c -1.1,-1.9 -2.8,-2.9 -5.1,-2.9 -1.8,0 -3.2,0.6 -4.5,1.8 -1.2,1.2 -1.8,2.6 -1.8,4.4 0,1.7 0.6,3.1 1.8,4.3 m -13.2,-4.6 c -0.5,0 -0.9,-0.1 -1.2,-0.4 -0.3,-0.3 -0.5,-0.6 -0.5,-1.1 0,-0.4 0.1,-0.8 0.5,-1 0.3,-0.3 0.7,-0.4 1.2,-0.4 l 2,0 0,2.9 -2,0 z m -3.6,-4.5 c -0.9,0.7 -1.3,1.7 -1.3,3 0,0.8 0.2,1.6 0.7,2.2 0.4,0.6 1.1,1.1 1.8,1.4 l -3.3,4.1 3.6,0 2.9,-3.6 1.3,0 0,3.6 3.2,0 0,-11.8 -5.3,0 c -1.5,0 -2.7,0.4 -3.6,1.1 m -13.1,8 c -0.9,0 -1.6,-0.3 -2.2,-0.9 -0.6,-0.6 -0.9,-1.4 -0.9,-2.3 0,-0.9 0.3,-1.7 0.9,-2.3 0.6,-0.6 1.3,-0.9 2.2,-0.9 0.9,0 1.6,0.3 2.2,0.9 0.6,0.6 0.9,1.4 0.9,2.3 0,0.9 -0.3,1.7 -0.9,2.3 -0.6,0.6 -1.3,0.9 -2.2,0.9 m -4.5,1.1 c 1.2,1.2 2.7,1.8 4.5,1.8 1.7,0 3.2,-0.6 4.5,-1.8 1.3,-1.2 1.9,-2.7 1.9,-4.4 0,-1.7 -0.6,-3.1 -1.8,-4.4 -1.3,-1.2 -2.8,-1.8 -4.5,-1.8 -1.7,0 -3.2,0.6 -4.5,1.8 -1.3,1.2 -1.9,2.7 -1.8,4.4 -0.1,1.7 0.5,3.2 1.7,4.4 m -15.4,1.6 0,-9.1 4.2,0 0,9.1 3.2,0 0,-11.8 -10.6,0 0,11.8 3.2,0 z m -26.9,-8.8 c 0.5,-0.4 1.1,-0.6 1.8,-0.6 0.7,0 1.3,0.2 1.8,0.7 0.5,0.4 0.7,1 0.7,1.7 l -5.3,0 c 0.1,-0.8 0.5,-1.4 1,-1.8 m 7.4,2.2 c 0,-1.6 -0.5,-2.9 -1.6,-3.9 -1,-1 -2.4,-1.6 -4,-1.6 -1.7,0 -3.2,0.6 -4.4,1.8 -1.2,1.2 -1.8,2.7 -1.8,4.4 0,1.7 0.6,3.2 1.8,4.4 1.3,1.2 2.8,1.8 4.6,1.8 1.7,0 3.3,-0.6 4.7,-1.8 l -1.3,-2.2 c -1,0.8 -2.1,1.2 -3.3,1.2 -0.9,0 -1.6,-0.2 -2.2,-0.6 -0.6,-0.4 -1,-1 -1.2,-1.7 l 8.2,0 c 0.4,-0.6 0.5,-1.2 0.5,-1.8 m -29.4,0.9 2,0 c 0.5,0 1,0.1 1.3,0.4 0.3,0.3 0.5,0.6 0.5,1.1 0,1 -0.6,1.4 -1.7,1.4 l -2,0 0,-2.9 z m 11.6,-6.1 -3.2,0 0,11.8 3.2,0 0,-11.8 z m -9.4,11.8 c 1.4,0 2.6,-0.4 3.5,-1.1 0.9,-0.7 1.4,-1.8 1.4,-3.1 0,-1.3 -0.5,-2.3 -1.4,-3 -0.9,-0.7 -2.1,-1.1 -3.5,-1.1 l -2.1,0 0,-3.4 -3.2,0 0,11.8 5.3,0 z m -16.2,-2.4 -2.9,0 0,-2.6 2.9,0 c 0.5,0 0.9,0.1 1.2,0.3 0.3,0.2 0.4,0.5 0.4,0.9 0,0.4 -0.1,0.7 -0.4,1 -0.3,0.3 -0.7,0.4 -1.2,0.4 m -0.6,-7 c 0.9,0 1.4,0.4 1.4,1.1 0,0.7 -0.5,1.1 -1.4,1.1 l -2.2,0 0,-2.2 2.2,0 z m 3.4,3.1 c 0.6,-0.6 1,-1.3 1,-2.2 0,-1 -0.4,-1.8 -1.2,-2.4 -0.8,-0.6 -1.8,-0.9 -3,-0.9 l -5.5,0 0,11.8 6.3,0 c 1.2,0 2.2,-0.3 3,-1 0.8,-0.7 1.2,-1.5 1.2,-2.6 0,-1.3 -0.6,-2.2 -1.8,-2.7 m -21.1,3.6 c -0.9,0 -1.6,-0.3 -2.2,-0.9 -0.6,-0.6 -0.9,-1.4 -0.9,-2.3 0,-0.9 0.3,-1.7 0.9,-2.3 0.6,-0.6 1.3,-0.9 2.2,-0.9 0.9,0 1.6,0.3 2.2,0.9 0.6,0.6 0.9,1.4 0.9,2.3 0,0.9 -0.3,1.7 -0.9,2.3 -0.6,0.6 -1.3,0.9 -2.2,0.9 m -4.5,1.1 c 1.2,1.2 2.7,1.8 4.5,1.8 1.7,0 3.2,-0.6 4.5,-1.8 1.3,-1.2 1.9,-2.7 1.9,-4.4 0,-1.7 -0.6,-3.1 -1.8,-4.4 -1.3,-1.2 -2.8,-1.8 -4.5,-1.8 -1.7,0 -3.2,0.6 -4.5,1.8 -1.3,1.2 -1.9,2.7 -1.8,4.4 -0.1,1.7 0.5,3.2 1.7,4.4 m -16.4,0 c 1.3,1.2 2.7,1.8 4.5,1.8 1.1,0 2.1,-0.3 3,-0.8 0.9,-0.5 1.6,-1.2 2.1,-2.2 l -2.2,-1.7 c -0.8,1.1 -1.7,1.7 -2.8,1.7 -0.9,0 -1.6,-0.3 -2.2,-0.9 -0.6,-0.6 -0.9,-1.4 -0.9,-2.3 0,-0.9 0.3,-1.7 0.9,-2.3 0.6,-0.6 1.3,-0.9 2.2,-0.9 1.1,0 2,0.6 2.8,1.7 l 2.2,-1.7 c -1.1,-1.9 -2.8,-2.9 -5.1,-2.9 -1.8,0 -3.2,0.6 -4.5,1.8 -1.2,1.2 -1.8,2.6 -1.8,4.4 -0.1,1.7 0.5,3.1 1.8,4.3 m -11.8,-1.2 c -0.5,0.4 -1.1,0.7 -1.8,0.7 -0.5,0 -0.9,-0.1 -1.2,-0.3 -0.3,-0.2 -0.5,-0.5 -0.5,-0.9 0,-0.8 0.5,-1.2 1.6,-1.2 l 2.5,0 0,0.1 c 0.1,0.6 -0.1,1.2 -0.6,1.6 m 2.6,-7.9 c -0.9,-0.9 -2.1,-1.3 -3.7,-1.3 -2.1,0 -3.8,0.8 -5.1,2.4 l 1.7,2 c 0.5,-0.6 1,-1 1.5,-1.2 0.5,-0.3 1,-0.4 1.6,-0.4 0.7,0 1.3,0.2 1.6,0.5 0.4,0.4 0.6,0.9 0.6,1.5 l 0,0.5 -2.9,0 c -1.4,0 -2.4,0.3 -3.2,0.9 -0.8,0.6 -1.2,1.4 -1.2,2.5 0,1 0.4,1.9 1.1,2.5 0.7,0.6 1.7,1 3,1 1.5,0 2.7,-0.5 3.6,-1.4 l 0,1.1 2.9,0 0,-7 c -0.1,-1.5 -0.6,-2.8 -1.5,-3.6 m -18.5,3.7 c -0.5,0.2 -1.1,0.3 -1.9,0.3 -1.5,0 -2.3,-0.8 -2.3,-2.5 l 0,-2.7 -3.2,0 0,2.9 c 0,1.6 0.4,2.9 1.3,3.8 0.8,0.9 2,1.3 3.6,1.3 1.1,0 1.9,-0.1 2.5,-0.4 l 0,4.1 3.2,0 0,-11.8 -3.2,0 0,5 z m -29,0.8 c -0.5,0 -0.9,-0.1 -1.2,-0.4 -0.3,-0.3 -0.5,-0.6 -0.5,-1.1 0,-0.4 0.1,-0.8 0.5,-1 0.3,-0.3 0.7,-0.4 1.2,-0.4 l 2,0 0,2.9 -2,0 z m -3.6,-4.5 c -0.9,0.7 -1.3,1.7 -1.3,3 0,0.8 0.2,1.6 0.7,2.2 0.4,0.6 1.1,1.1 1.8,1.4 l -3.3,4.1 3.6,0 2.9,-3.6 1.3,0 0,3.6 3.2,0 0,-11.8 -5.3,0 c -1.6,0 -2.7,0.4 -3.6,1.1 m -13.1,4.5 c -0.5,0 -0.9,-0.1 -1.2,-0.4 -0.3,-0.3 -0.5,-0.6 -0.5,-1.1 0,-0.4 0.2,-0.8 0.5,-1 0.3,-0.3 0.7,-0.4 1.2,-0.4 l 2,0 0,2.9 -2,0 z m -3.6,-4.5 c -0.9,0.7 -1.3,1.7 -1.3,3 0,0.8 0.2,1.6 0.7,2.2 0.4,0.6 1.1,1.1 1.8,1.4 l -3.3,4.1 3.6,0 2.9,-3.6 1.3,0 0,3.6 3.2,0 0,-11.8 -5.4,0 c -1.5,0 -2.7,0.4 -3.5,1.1 m -15.5,10.7 0,-4.7 4.3,0 0,4.7 3.2,0 0,-11.8 -3.2,0 0,4.3 -4.3,0 0,-4.3 -3.2,0 0,11.8 3.2,0 z m -17.7,-5.4 0,-6.4 -3.2,0 0,12 1,0 6.6,-6.7 0,6.4 3.2,0 0,-12 -1,0 -6.6,6.7 z m -17.7,-3 0,-0.7 3.4,0 0,6.3 -4.5,0 c 0.6,-1.2 1,-3.1 1.1,-5.6 m 6.6,-3.4 -9.4,0 -0.1,2.9 c -0.1,1.7 -0.2,3.1 -0.4,4 -0.2,1 -0.6,1.7 -1,2.1 l -1.3,0 0,6.1 3.1,0 0,-3.3 8,0 0,3.3 3.1,0 0,-6.1 -1.9,0 0,-9 z m -24,3 c 0.5,-0.4 1.1,-0.6 1.8,-0.6 0.7,0 1.3,0.2 1.8,0.7 0.5,0.4 0.7,1 0.7,1.7 l -5.3,0 c 0.2,-0.8 0.5,-1.4 1,-1.8 m 7.5,2.2 c 0,-1.6 -0.5,-2.9 -1.6,-3.9 -1,-1 -2.4,-1.6 -4,-1.6 -1.7,0 -3.2,0.6 -4.4,1.8 -1.2,1.2 -1.8,2.7 -1.8,4.4 0,1.7 0.6,3.2 1.8,4.4 1.3,1.2 2.8,1.8 4.6,1.8 1.7,0 3.3,-0.6 4.7,-1.8 l -1.3,-2.2 c -1,0.8 -2.1,1.2 -3.3,1.2 -0.9,0 -1.6,-0.2 -2.2,-0.6 -0.6,-0.4 -1,-1 -1.2,-1.7 l 8.2,0 c 0.4,-0.6 0.5,-1.2 0.5,-1.8 m -24.2,0.9 2,0 c 0.5,0 0.9,0.1 1.3,0.4 0.3,0.3 0.5,0.6 0.5,1.1 0,0.5 -0.2,0.8 -0.5,1.1 -0.3,0.2 -0.7,0.4 -1.3,0.4 l -2,0 0,-3 z m 2.2,5.7 c 1.4,0 2.6,-0.4 3.5,-1.1 0.9,-0.8 1.4,-1.8 1.4,-3.1 0,-1.3 -0.5,-2.3 -1.4,-3 -0.9,-0.7 -2.1,-1.1 -3.5,-1.1 l -2.1,0 0,-3.4 -6,0 0,2.7 2.9,0 0,9.1 5.2,0 z m -17.1,-3.6 c -0.6,0.6 -1.3,0.9 -2.1,0.9 -0.8,0 -1.6,-0.3 -2.1,-0.9 -0.6,-0.6 -0.9,-1.3 -0.9,-2.1 0,-0.8 0.3,-1.5 0.9,-2.1 0.6,-0.6 1.3,-0.9 2.1,-0.9 0.9,0 1.6,0.3 2.1,0.9 0.6,0.6 0.9,1.3 0.9,2.1 -0.1,0.8 -0.4,1.5 -0.9,2.1 m 2.5,-6.3 c -1.1,-1.1 -2.4,-1.7 -3.9,-1.7 -1.8,0 -3.2,0.7 -4.1,2 0,-0.9 0.1,-1.6 0.3,-2.1 0.1,-0.5 0.4,-1 0.8,-1.4 0.4,-0.4 0.9,-0.7 1.5,-1 0.6,-0.2 1.5,-0.4 2.5,-0.5 1.8,-0.2 2.9,-0.4 3.5,-0.6 l 0,-2.9 c -0.7,0.2 -1.8,0.4 -3.5,0.7 -1.6,0.2 -2.9,0.5 -4,1 -1,0.4 -1.8,1 -2.4,1.8 -0.6,0.8 -1,1.6 -1.2,2.6 -0.2,0.9 -0.3,2.1 -0.4,3.5 l 0,1.8 c 0,2.1 0.6,3.8 1.7,5.1 1.2,1.3 2.7,1.9 4.6,1.9 1.8,0 3.3,-0.6 4.5,-1.7 1.2,-1.1 1.8,-2.5 1.8,-4.3 -0.1,-1.7 -0.6,-3.1 -1.7,-4.2 m -22.9,7.2 c -0.9,0 -1.6,-0.3 -2.2,-0.9 -0.6,-0.6 -0.9,-1.4 -0.9,-2.3 0,-0.9 0.3,-1.7 0.9,-2.3 0.6,-0.6 1.3,-0.9 2.2,-0.9 0.9,0 1.6,0.3 2.2,0.9 0.6,0.6 0.9,1.4 0.9,2.3 0,0.9 -0.3,1.7 -0.9,2.3 -0.6,0.6 -1.4,0.9 -2.2,0.9 m -4.5,1.1 c 1.2,1.2 2.7,1.8 4.5,1.8 1.7,0 3.2,-0.6 4.5,-1.8 1.3,-1.2 1.9,-2.7 1.9,-4.4 0,-1.7 -0.6,-3.1 -1.8,-4.4 -1.3,-1.2 -2.8,-1.8 -4.5,-1.8 -1.7,0 -3.2,0.6 -4.5,1.8 -1.3,1.2 -1.9,2.7 -1.8,4.4 -0.2,1.7 0.4,3.2 1.7,4.4"
   id="path3369" />

	<g
   id="g3371">
		<path
   style="fill:#00a0dd"
   class="st1"
   d="m 75.8,115.8 -70,0 c -2.3,0 -4.2,-1.9 -4.2,-4.2 0,-2.3 1.9,-4.2 4.2,-4.2 l 70,0 c 2.3,0 4.2,1.9 4.2,4.2 0,2.4 -1.9,4.2 -4.2,4.2"
   id="path3373" />

		<path
   style="fill:#00a0dd"
   class="st1"
   d="m 80,10.6 c 0,1.1 -0.9,2.1 -2.1,2.1 l -4.2,0 c -1.1,0 -2.1,-0.9 -2.1,-2.1 l 0,-4.3 c 0,-1.1 0.9,-2.1 2.1,-2.1 l 4.3,0 c 1.1,0 2.1,0.9 2.1,2.1 l 0,4.3 z"
   id="path3375" />

		<path
   style="fill:#00a0dd"
   class="st1"
   d="m 9.9,10.6 c 0,1.1 -0.9,2 -2,2 l -4.2,0 c -1.1,0 -2,-0.9 -2,-2 l 0,-4.3 c 0,-1.1 0.9,-2 2,-2 l 4.2,0 c 1.1,0 2,0.9 2,2 l 0,4.3 z"
   id="path3377" />

		<path
   style="fill:#00a0dd"
   class="st1"
   d="M 5.8,71 C 3.5,71 1.6,69.1 1.6,66.8 l 0,-46.9 c 0,-2.3 1.9,-4.2 4.2,-4.2 2.3,0 4.2,1.9 4.2,4.2 l 0,46.9 C 9.9,69.1 8.1,71 5.8,71"
   id="path3379" />

		<path
   style="fill:#00a0dd"
   class="st1"
   d="m 75.9,71 c -2.3,0 -4.2,-1.9 -4.2,-4.2 l 0,-46.9 c 0,-2.3 1.9,-4.2 4.2,-4.2 2.3,0 4.2,1.9 4.2,4.2 l 0,46.9 C 80,69.1 78.2,71 75.9,71"
   id="path3381" />

		<path
   style="fill:#00a0dd"
   class="st1"
   d="m 64.2,12.6 -46.9,0 c -2.3,0 -4.2,-1.9 -4.2,-4.2 0,-2.3 1.9,-4.2 4.2,-4.2 l 46.9,0 c 2.3,0 4.2,1.9 4.2,4.2 0,2.3 -1.9,4.2 -4.2,4.2"
   id="path3383" />

		<path
   style="fill:#00a0dd"
   class="st1"
   d="m 80,76.2 c 0,-1.1 -0.9,-2 -2,-2 l -4.2,0 c -1.1,0 -2,0.9 -2,2 l 0,4.2 c 0,1.1 0.9,2 2,2 l 4.2,0 c 1.1,0 2,-0.9 2,-2 l 0,-4.2 z"
   id="path3385" />

		<path
   style="fill:#00a0dd"
   class="st1"
   d="M 10,76.2 C 10,75.1 9.1,74.1 7.9,74.1 l -4.2,0 c -1.1,0 -2.1,0.9 -2.1,2.1 l 0,4.2 c 0,1.1 0.9,2.1 2.1,2.1 l 4.2,0 C 9,82.5 10,81.6 10,80.4 l 0,-4.2 z"
   id="path3387" />

		<path
   style="fill:#00a0dd"
   class="st1"
   d="m 64.2,74.2 -46.9,0 c -2.3,0 -4.2,1.9 -4.2,4.2 0,2.3 1.9,4.2 4.2,4.2 l 46.9,0 c 2.3,0 4.2,-1.9 4.2,-4.2 0,-2.4 -1.9,-4.2 -4.2,-4.2"
   id="path3389" />

		<path
   style="fill:#00a0dd"
   class="st1"
   d="m 64.5,70.8 c -1,0 -2,-0.4 -2.7,-1.1 L 14.4,22.4 c -1.5,-1.5 -1.6,-4 -0.1,-5.6 1.5,-1.6 4,-1.6 5.5,-0.1 L 67.2,64 c 1.5,1.5 1.6,4 0.1,5.6 -0.8,0.8 -1.8,1.2 -2.8,1.2"
   id="path3391" />

		<path
   style="fill:#00a0dd"
   class="st1"
   d="m 17.1,70.8 c -1,0 -2,-0.4 -2.8,-1.2 C 12.8,68 12.8,65.5 14.4,64 L 61.8,16.7 c 1.5,-1.5 4,-1.5 5.5,0.1 1.5,1.6 1.5,4.1 -0.1,5.6 L 19.8,69.6 c -0.7,0.8 -1.7,1.2 -2.7,1.2"
   id="path3393" />

	</g>

</g>
  </g>
  <style
     type="text/css"
     id="style3337">
	.st0{fill:#453C36;}
	.st1{fill:#00A0DD;}
</style>
</svg>
